<?xml version="1.0" encoding="utf-8"?>
<!-- Generator: Adobe Illustrator 23.0.0, SVG Export Plug-In . SVG Version: 6.00 Build 0)  -->
<svg version="1.1" id="Layer_1" xmlns="http://www.w3.org/2000/svg" xmlns:xlink="http://www.w3.org/1999/xlink" x="0px" y="0px"
	 viewBox="0 0 170.2 147.2" style="enable-background:new 0 0 170.2 147.2;" xml:space="preserve">
<style type="text/css">
	.st0{fill:#FFFFFF;stroke:#39A4DD;stroke-width:1.9124;stroke-miterlimit:10;}
	.st1{fill:#39A4DD;}
	.st2{fill:#39A4DD;stroke:#394FA2;stroke-width:1.4343;stroke-miterlimit:10;}
</style>
<g>
	<polygon class="st0" points="10.4,128.7 85.3,16.6 160.1,128.7 	"/>
	<g>
		<path class="st1" d="M87.4,57.9h3.8v7.4c0,0.8-0.1,1.4-0.4,2.1c-0.2,0.7-0.6,1.2-1.1,1.7c-0.5,0.5-1,0.9-1.5,1.1
			c-0.8,0.3-1.6,0.4-2.7,0.4c-0.6,0-1.2,0-2-0.1c-0.8-0.1-1.3-0.3-1.8-0.5c-0.5-0.2-1-0.6-1.3-1.1s-0.7-1-0.8-1.4
			c-0.2-1-0.3-1.6-0.3-2.3v-7.3h3.8v7.6c0,0.7,0.2,1.2,0.6,1.5c0.4,0.4,0.9,0.6,1.5,0.6c0.7,0,1.1-0.2,1.5-0.6
			c0.4-0.4,0.6-0.9,0.6-1.6C87.4,65.4,87.4,57.9,87.4,57.9z"/>
	</g>
	<g>
		<path class="st1" d="M51.1,99h5l1.9,7.5l1.9-7.5h5v12.3h-3.2v-9.4l-2.4,9.4h-2.9l-2.4-9.4v9.4h-3.2V99H51.1z"/>
	</g>
	<g>
		<path class="st1" d="M107.1,111.3V99h6.3c1.1,0,2.1,0.1,2.7,0.3c0.6,0.2,1.1,0.6,1.5,1.1c0.4,0.6,0.6,1.2,0.6,2
			c0,0.7-0.2,1.2-0.5,1.8c-0.3,0.5-0.7,0.9-1.2,1.2c-0.3,0.2-0.8,0.4-1.3,0.5c0.5,0.2,0.8,0.3,1,0.5c0.1,0.1,0.4,0.3,0.6,0.7
			c0.3,0.3,0.5,0.6,0.6,0.8l1.8,3.5h-4.3l-2-3.7c-0.3-0.5-0.5-0.8-0.7-1c-0.3-0.2-0.6-0.3-1-0.3h-0.2v5L107.1,111.3L107.1,111.3z
			 M110.9,103.9h1.6c0.2,0,0.5-0.1,1.1-0.2c0.3-0.1,0.5-0.2,0.6-0.4c0.2-0.2,0.3-0.5,0.3-0.7c0-0.4-0.1-0.7-0.4-1
			c-0.3-0.3-0.8-0.3-1.4-0.3h-1.7V103.9z"/>
	</g>
	<path class="st2" d="M85.3,40C70.2,40,58,50.7,58,63.8C58,77,70.2,87.6,85.3,87.6s27.3-10.7,27.3-23.8S100.3,40,85.3,40z M85.3,77
		c-8.3,0-15.1-5.9-15.1-13.2c0-6.1,4.8-11.3,11.3-12.7V48h7.6v3.1c6.5,1.5,11.3,6.6,11.3,12.7C100.4,71.1,93.6,77,85.3,77z"/>
	<path class="st2" d="M58,81.1c-15,0-27.3,10.7-27.3,23.8c0,13.2,12.2,23.8,27.3,23.8s27.3-10.7,27.3-23.8
		C85.3,91.7,73,81.1,58,81.1z M58,118.1c-3.6,0-7-1.1-9.7-3.1l-2.6,1.9l-4.6-6.1l2.5-1.8c-0.5-1.2-0.8-2.7-0.8-4.1
		c0-7.3,6.8-13.2,15.1-13.2s15.1,5.9,15.1,13.2C73.1,112.2,66.3,118.1,58,118.1z"/>
	<path class="st2" d="M112.5,81.1c-15,0-27.3,10.7-27.3,23.8c0,13.2,12.2,23.8,27.3,23.8s27.3-10.7,27.3-23.8
		C139.8,91.7,127.5,81.1,112.5,81.1z M124.7,116.9l-2.6-1.9c-2.6,1.9-5.9,3.1-9.7,3.1c-8.3,0-15.1-5.9-15.1-13.2
		c0-7.3,6.8-13.2,15.1-13.2s15.1,5.9,15.1,13.2c0,1.4-0.3,2.8-0.8,4.1l2.5,1.8L124.7,116.9z"/>
</g>
</svg>
