<?xml version="1.0" encoding="utf-8"?>
<!-- Generator: Adobe Illustrator 23.0.0, SVG Export Plug-In . SVG Version: 6.00 Build 0)  -->
<svg version="1.1" id="Layer_1" xmlns="http://www.w3.org/2000/svg" xmlns:xlink="http://www.w3.org/1999/xlink" x="0px" y="0px"
	 viewBox="0 0 514.8 140" style="enable-background:new 0 0 514.8 140;" xml:space="preserve">
<style type="text/css">
	.st0{fill:#FFFFFF;stroke:#03A9F4;stroke-width:1.4846;stroke-miterlimit:10;}
	.st1{fill:#03A9F4;}
	.st2{fill:#03A9F4;stroke:#0000EB;stroke-width:1.1135;stroke-miterlimit:10;}
</style>
<g>
	<g>
		<polygon class="st0" points="19.6,101.6 77.7,14.6 135.8,101.6 		"/>
		<g>
			<path class="st1" d="M79.3,46.7h3v5.7c0,0.6-0.1,1.1-0.3,1.6c-0.1,0.5-0.4,1-0.8,1.3c-0.4,0.4-0.7,0.7-1.2,0.8
				c-0.6,0.2-1.3,0.3-2.1,0.3c-0.4,0-1,0-1.6-0.1c-0.6-0.1-1-0.2-1.4-0.4c-0.4-0.1-0.7-0.4-1-0.8c-0.3-0.4-0.5-0.7-0.6-1.1
				c-0.1-0.7-0.2-1.3-0.2-1.8v-5.6h3v5.9c0,0.5,0.1,1,0.4,1.2c0.3,0.3,0.7,0.4,1.2,0.4s0.9-0.1,1.2-0.4c0.3-0.3,0.4-0.7,0.4-1.3
				C79.3,52.4,79.3,46.7,79.3,46.7z"/>
		</g>
		<g>
			<path class="st1" d="M51.2,78.5h3.9l1.5,5.8l1.5-5.8h3.9v9.6h-2.4v-7.3l-1.9,7.3h-2.2l-1.9-7.3v7.3H51v-9.6H51.2z"/>
		</g>
		<g>
			<path class="st1" d="M94.6,88.1v-9.6h4.9c0.9,0,1.6,0.1,2.1,0.2s0.9,0.4,1.2,0.9c0.3,0.4,0.4,1,0.4,1.6c0,0.5-0.1,1-0.4,1.4
				c-0.2,0.4-0.5,0.7-1,1c-0.2,0.1-0.6,0.3-1,0.4c0.4,0.1,0.6,0.2,0.7,0.4c0.1,0.1,0.3,0.2,0.4,0.5c0.2,0.2,0.4,0.4,0.4,0.6l1.4,2.7
				h-3.3L99,85.3c-0.2-0.4-0.4-0.6-0.5-0.7c-0.2-0.1-0.4-0.2-0.7-0.2h-0.1v3.9L94.6,88.1L94.6,88.1z M97.6,82.4h1.3
				c0.1,0,0.4-0.1,0.8-0.1c0.2-0.1,0.4-0.1,0.4-0.3c0.1-0.1,0.2-0.4,0.2-0.5c0-0.3-0.1-0.5-0.3-0.7c-0.2-0.2-0.6-0.2-1.1-0.2h-1.3
				V82.4z"/>
		</g>
		<path class="st2" d="M77.7,32.7C66,32.7,56.5,41,56.5,51.2c0,10.2,9.5,18.5,21.2,18.5s21.2-8.3,21.2-18.5S89.3,32.7,77.7,32.7z
			 M77.7,61.4c-6.5,0-11.7-4.6-11.7-10.2c0-4.8,3.7-8.8,8.8-9.9v-2.4h5.9v2.4c5,1.2,8.8,5.1,8.8,9.9C89.4,56.9,84.2,61.4,77.7,61.4z
			"/>
		<path class="st2" d="M56.5,64.6c-11.7,0-21.2,8.3-21.2,18.5c0,10.2,9.5,18.5,21.2,18.5s21.2-8.3,21.2-18.5
			C77.7,72.9,68.2,64.6,56.5,64.6z M56.5,93.3c-2.8,0-5.4-0.9-7.5-2.4l-2,1.5l-3.6-4.8l1.9-1.4c-0.4-1-0.6-2.1-0.6-3.2
			c0-5.6,5.3-10.2,11.7-10.2s11.7,4.6,11.7,10.2C68.3,88.7,63,93.3,56.5,93.3z"/>
		<path class="st2" d="M98.9,64.6c-11.7,0-21.2,8.3-21.2,18.5c0,10.2,9.5,18.5,21.2,18.5S120,93.3,120,83.1
			C120,72.9,110.5,64.6,98.9,64.6z M108.4,92.5l-2-1.5c-2,1.5-4.6,2.4-7.5,2.4c-6.5,0-11.7-4.6-11.7-10.2c0-5.6,5.3-10.2,11.7-10.2
			c6.5,0,11.7,4.6,11.7,10.2c0,1.1-0.2,2.2-0.6,3.2l1.9,1.4L108.4,92.5z"/>
	</g>
	<g>
		<path class="st1" d="M172.4,55.7h7.8v15.1c0,1.5-0.2,2.9-0.7,4.3c-0.5,1.3-1.2,2.5-2.2,3.5s-2,1.7-3.1,2.1
			c-1.5,0.6-3.4,0.8-5.5,0.8c-1.2,0-2.6-0.1-4-0.3c-1.5-0.2-2.7-0.5-3.7-1s-1.9-1.2-2.7-2.2s-1.4-1.9-1.7-2.9
			c-0.5-1.6-0.7-3-0.7-4.3V55.7h7.8v15.5c0,1.4,0.4,2.5,1.2,3.2s1.8,1.2,3.2,1.2s2.4-0.4,3.2-1.2c0.8-0.8,1.2-1.9,1.2-3.3V55.7
			H172.4z"/>
		<path class="st1" d="M185.5,55.7h7.3l9.6,14.1V55.7h7.4v25.4h-7.4l-9.5-14v14h-7.4L185.5,55.7L185.5,55.7z"/>
		<path class="st1" d="M215.4,55.7h7.9v25.4h-7.9V55.7z"/>
		<path class="st1" d="M228.8,55.7h10.3l4,15.5l4-15.5h10.3v25.4H251V61.7l-5,19.4h-5.8l-4.9-19.4v19.4h-6.4V55.7H228.8z"/>
		<path class="st1" d="M278,76.9h-8.9l-1.2,4.2h-8l9.6-25.4h8.6l9.6,25.4h-8.2L278,76.9z M276.4,71.4l-2.8-9.1l-2.8,9.1H276.4z"/>
		<path class="st1" d="M288.6,72.7l7.5-0.5c0.2,1.2,0.5,2.1,1,2.8c0.8,1,2,1.5,3.5,1.5c1.1,0,2-0.3,2.6-0.8s0.9-1.1,0.9-1.8
			c0-0.7-0.3-1.2-0.9-1.8c-0.6-0.5-1.9-1-4-1.5c-3.4-0.8-5.9-1.8-7.4-3.1c-1.5-1.3-2.2-2.9-2.2-4.9c0-1.3,0.4-2.5,1.1-3.7
			c0.8-1.2,1.9-2.1,3.4-2.7c1.5-0.7,3.6-1,6.3-1c3.2,0,5.7,0.6,7.4,1.8c1.7,1.2,2.7,3.1,3,5.8l-7.4,0.4c-0.2-1.1-0.6-2-1.2-2.5
			s-1.5-0.8-2.6-0.8c-0.9,0-1.6,0.2-2.1,0.6c-0.5,0.4-0.7,0.9-0.7,1.4c0,0.4,0.2,0.8,0.6,1.1s1.2,0.6,2.6,0.9
			c3.4,0.7,5.9,1.5,7.4,2.2c1.5,0.8,2.6,1.7,3.2,2.8c0.7,1.1,1,2.4,1,3.8c0,1.6-0.5,3.1-1.4,4.5s-2.2,2.4-3.8,3.1s-3.7,1.1-6.1,1.1
			c-4.3,0-7.3-0.8-9-2.5C289.8,77.4,288.8,75.3,288.6,72.7z"/>
		<path class="st1" d="M314.3,72.7l7.5-0.5c0.2,1.2,0.5,2.1,1,2.8c0.8,1,2,1.5,3.5,1.5c1.1,0,2-0.3,2.6-0.8s0.9-1.1,0.9-1.8
			c0-0.7-0.3-1.2-0.9-1.8c-0.6-0.5-1.9-1-4-1.5c-3.4-0.8-5.9-1.8-7.4-3.1c-1.5-1.3-2.2-2.9-2.2-4.9c0-1.3,0.4-2.5,1.1-3.7
			c0.8-1.2,1.9-2.1,3.4-2.7c1.5-0.7,3.6-1,6.3-1c3.2,0,5.7,0.6,7.4,1.8c1.7,1.2,2.7,3.1,3,5.8l-7.4,0.4c-0.2-1.1-0.6-2-1.2-2.5
			s-1.5-0.8-2.6-0.8c-0.9,0-1.6,0.2-2.1,0.6c-0.5,0.4-0.7,0.9-0.7,1.4c0,0.4,0.2,0.8,0.6,1.1s1.2,0.6,2.6,0.9
			c3.4,0.7,5.9,1.5,7.4,2.2c1.5,0.8,2.6,1.7,3.2,2.8c0.7,1.1,1,2.4,1,3.8c0,1.6-0.5,3.1-1.4,4.5s-2.2,2.4-3.8,3.1s-3.7,1.1-6.1,1.1
			c-4.3,0-7.3-0.8-9-2.5C315.4,77.4,314.5,75.3,314.3,72.7z"/>
		<path class="st1" d="M353.2,81.1V55.7h13.1c2.4,0,4.3,0.2,5.6,0.6c1.3,0.4,2.3,1.2,3.1,2.3c0.8,1.1,1.2,2.5,1.2,4.1
			c0,1.4-0.3,2.6-0.9,3.7c-0.6,1-1.4,1.9-2.5,2.5c-0.7,0.4-1.6,0.7-2.8,1c0.9,0.3,1.6,0.6,2,0.9c0.3,0.2,0.7,0.7,1.3,1.3
			s0.9,1.2,1.1,1.6l3.8,7.4h-8.9l-4.2-7.8c-0.5-1-1-1.7-1.4-2c-0.6-0.4-1.2-0.6-1.9-0.6h-0.7V81L353.2,81.1L353.2,81.1z M361.1,66
			h3.3c0.4,0,1.1-0.1,2.1-0.3c0.5-0.1,0.9-0.4,1.3-0.8s0.5-0.9,0.5-1.5c0-0.8-0.3-1.5-0.8-1.9s-1.5-0.7-2.9-0.7h-3.5V66z"/>
		<path class="st1" d="M379.1,68.4c0-4.1,1.2-7.4,3.5-9.7s5.5-3.5,9.7-3.5s7.5,1.1,9.8,3.4c2.3,2.3,3.4,5.5,3.4,9.5
			c0,3-0.5,5.4-1.5,7.3s-2.4,3.4-4.3,4.4s-4.2,1.6-7.1,1.6s-5.2-0.5-7.1-1.4s-3.4-2.4-4.6-4.3S379.1,71.4,379.1,68.4z M387,68.4
			c0,2.6,0.5,4.4,1.4,5.5c1,1.1,2.3,1.7,3.9,1.7c1.7,0,3-0.5,3.9-1.6s1.4-3.1,1.4-5.9c0-2.4-0.5-4.1-1.4-5.2c-1-1.1-2.3-1.7-3.9-1.7
			s-2.9,0.6-3.8,1.7C387.5,64,387,65.9,387,68.4z"/>
		<path class="st1" d="M409.7,55.7h7.9v19.2h12.3v6.3h-20.1L409.7,55.7L409.7,55.7z"/>
		<path class="st1" d="M433.4,55.7h7.9v19.2h12.3v6.3h-20.1L433.4,55.7L433.4,55.7z"/>
		<path class="st1" d="M457,55.7h21v5.4h-13.2v4H477v5.2h-12.2v5h13.6v5.8H457V55.7z"/>
		<path class="st1" d="M482.8,81.1V55.7h13.1c2.4,0,4.3,0.2,5.6,0.6c1.3,0.4,2.3,1.2,3.1,2.3c0.8,1.1,1.2,2.5,1.2,4.1
			c0,1.4-0.3,2.6-0.9,3.7c-0.6,1-1.4,1.9-2.5,2.5c-0.7,0.4-1.6,0.7-2.8,1c0.9,0.3,1.6,0.6,2,0.9c0.3,0.2,0.7,0.7,1.3,1.3
			s0.9,1.2,1.1,1.6l3.8,7.4h-8.9l-4.2-7.8c-0.5-1-1-1.7-1.4-2c-0.6-0.4-1.2-0.6-1.9-0.6h-0.7V81L482.8,81.1L482.8,81.1z M490.7,66
			h3.3c0.4,0,1.1-0.1,2.1-0.3c0.5-0.1,0.9-0.4,1.3-0.8s0.5-0.9,0.5-1.5c0-0.8-0.3-1.5-0.8-1.9s-1.5-0.7-2.9-0.7h-3.5V66z"/>
	</g>
</g>
</svg>
